<svg id="Layer_1" data-name="Layer 1" xmlns="http://www.w3.org/2000/svg" viewBox="0 0 231 201"><title>logo</title><polygon points="45 20 45 45 63 28 63 201 82 201 82 3 64 3 45 20" style="fill:#fff"/><path d="M218,101c-41,0-64,32-64,66s24,63,60,63,48-27,48-27c0,41.48-4,54-15,69-8.87,12.1-15,11-15,11v19c10-2,26.89-12.49,38-33,13-24,13-57,13-57V176C283,136,259,101,218,101Zm41,66c-1,49-43,45-43,45s-41-2-41-46c0-47,41-47,41-47S260,118,259,167Z" transform="translate(-52 -101)" style="fill:#fff"/><path d="M157,260h21s-2,13,18,23v19S162,295,157,260Z" transform="translate(-52 -101)" style="fill:#fff"/><ellipse cx="15" cy="187" rx="15" ry="14" style="fill:#fff"/></svg>