<svg xmlns="http://www.w3.org/2000/svg" xmlns:xlink="http://www.w3.org/1999/xlink" viewBox="0 0 422.33 512.03"><defs><style>.a{fill:#39b548;}.b{fill:url(#a);}</style><linearGradient id="a" x1="211.17" y1="320.92" x2="211.17" y2="10.34" gradientUnits="userSpaceOnUse"><stop offset="0" stop-color="#b1e6fa"/><stop offset="1" stop-color="#1e7ac0"/></linearGradient></defs><title>splash</title><path class="a" d="M255.84,511.66h-4.08V483.9h4.08Z"/><path class="a" d="M266.58,483.9l1.33-.08,1.24-.06,1.22,0h1.26a23.1,23.1,0,0,1,6.84.93,14.49,14.49,0,0,1,5.08,2.7,11.56,11.56,0,0,1,3.17,4.29,14.33,14.33,0,0,1,1.09,5.69,15.83,15.83,0,0,1-1.12,6.1,12.37,12.37,0,0,1-3.22,4.55,14.15,14.15,0,0,1-5.12,2.84,21.7,21.7,0,0,1-6.81,1h-1.27l-1.21,0-1.2,0-1.28-.06ZM270.66,508l.9,0h.9a14.47,14.47,0,0,0,4.68-.71,9.75,9.75,0,0,0,3.52-2.06,8.9,8.9,0,0,0,2.2-3.3,12.05,12.05,0,0,0,.76-4.42,11.41,11.41,0,0,0-.75-4.27,8.36,8.36,0,0,0-2.19-3.17,9.72,9.72,0,0,0-3.54-2,15.44,15.44,0,0,0-4.75-.67h-1.73Z"/><path class="a" d="M311.79,487.5H301.42v8.24h9.51v3.63h-9.51v8.69h10.37v3.6H297.34V483.9h14.45Z"/><path class="a" d="M332.2,483.9q2.63,6.86,4.69,13.88t3.4,13.88h-4.17c-.18-1-.38-2-.59-3s-.44-2-.7-3H324.46c-.26,1-.49,2-.7,3s-.4,2-.58,3H319.1q1.33-6.87,3.41-13.88t4.68-13.88ZM334,502q-.92-3.5-2-7t-2.32-6.75c-.81,2.2-1.57,4.45-2.3,6.75s-1.4,4.63-2,7Z"/><path class="a" d="M348.35,506.26a11.57,11.57,0,0,0,2.92,1.55,9.4,9.4,0,0,0,3.12.54,6.15,6.15,0,0,0,1.88-.26,4.27,4.27,0,0,0,1.47-.76,3.35,3.35,0,0,0,.95-1.2,3.78,3.78,0,0,0,.33-1.62,3.52,3.52,0,0,0-.51-1.91,5.14,5.14,0,0,0-1.33-1.43,12.17,12.17,0,0,0-1.89-1.16l-2.16-1.08c-.74-.37-1.46-.77-2.16-1.21a8.89,8.89,0,0,1-1.89-1.55,6.92,6.92,0,0,1-1.34-2.1,7.24,7.24,0,0,1-.51-2.84,8.12,8.12,0,0,1,.62-3.25,7,7,0,0,1,1.71-2.43A7.34,7.34,0,0,1,352.2,484a10.31,10.31,0,0,1,3.37-.52A10.79,10.79,0,0,1,359,484a11.16,11.16,0,0,1,3,1.51L361,489a11.05,11.05,0,0,0-2.64-1.36,8.58,8.58,0,0,0-2.75-.46,5.41,5.41,0,0,0-1.7.25,4,4,0,0,0-1.35.71,3.35,3.35,0,0,0-.9,1.14,3.43,3.43,0,0,0-.33,1.52,3.33,3.33,0,0,0,.5,1.84,5.5,5.5,0,0,0,1.34,1.39,12.24,12.24,0,0,0,1.89,1.12c.71.34,1.43.69,2.16,1.07a24.59,24.59,0,0,1,2.17,1.23,9.06,9.06,0,0,1,1.89,1.59,7.42,7.42,0,0,1,1.33,2.15,7.61,7.61,0,0,1,.5,2.93,8,8,0,0,1-.65,3.3,7.16,7.16,0,0,1-1.82,2.49,7.94,7.94,0,0,1-2.76,1.56,10.66,10.66,0,0,1-3.45.54,12.3,12.3,0,0,1-3.85-.57,10.22,10.22,0,0,1-3.14-1.64Z"/><path class="a" d="M223.38,499.28H230v3.51h-6.63V510H219.9v-7.23h-6.47v-3.51h6.47v-7.23h3.48Z"/><path class="a" d="M74.37,483.9A136.32,136.32,0,0,1,71,497.78q-2.07,7-4.74,13.88h-5q-2.65-6.87-4.73-13.88a138.93,138.93,0,0,1-3.35-13.88h4.16c.36,1.88.77,3.8,1.23,5.78s1,4,1.53,6,1.15,4,1.78,5.95,1.28,3.88,2,5.73c.66-1.85,1.31-3.76,1.93-5.73s1.22-4,1.77-5.95,1.06-4,1.52-6,.87-3.9,1.22-5.78Z"/><path class="a" d="M87,511.66H82.92V483.9H87Z"/><path class="a" d="M97.74,506.26a11.51,11.51,0,0,0,2.91,1.55,9.41,9.41,0,0,0,3.13.54,6.24,6.24,0,0,0,1.88-.26,4.27,4.27,0,0,0,1.47-.76,3.33,3.33,0,0,0,.94-1.2,3.78,3.78,0,0,0,.33-1.62,3.6,3.6,0,0,0-.5-1.91,5.29,5.29,0,0,0-1.33-1.43,12.28,12.28,0,0,0-1.9-1.16l-2.16-1.08c-.74-.37-1.45-.77-2.16-1.21a9.41,9.41,0,0,1-1.89-1.55,7.11,7.11,0,0,1-1.34-2.1,7.24,7.24,0,0,1-.5-2.84,8.12,8.12,0,0,1,.61-3.25A6.93,6.93,0,0,1,99,485.55a7.22,7.22,0,0,1,2.63-1.52,10.36,10.36,0,0,1,3.37-.52,10.75,10.75,0,0,1,3.44.52,11.37,11.37,0,0,1,3,1.51l-1,3.48a10.93,10.93,0,0,0-2.65-1.36,8.58,8.58,0,0,0-2.75-.46,5.46,5.46,0,0,0-1.7.25,4,4,0,0,0-1.35.71,3.35,3.35,0,0,0-.9,1.14,3.43,3.43,0,0,0-.33,1.52,3.26,3.26,0,0,0,.51,1.84,5.18,5.18,0,0,0,1.34,1.39,11.36,11.36,0,0,0,1.89,1.12c.7.34,1.42.69,2.15,1.07a24.59,24.59,0,0,1,2.17,1.23,9.06,9.06,0,0,1,1.89,1.59,7.21,7.21,0,0,1,1.33,2.15,7.6,7.6,0,0,1,.51,2.93,8.13,8.13,0,0,1-.65,3.3,7.29,7.29,0,0,1-1.82,2.49,8.12,8.12,0,0,1-2.76,1.56,10.77,10.77,0,0,1-3.46.54,12.35,12.35,0,0,1-3.85-.57,10.33,10.33,0,0,1-3.14-1.64Z"/><path class="a" d="M125.83,511.66h-4.08V483.9h4.08Z"/><path class="a" d="M148.2,483.51a12.69,12.69,0,0,1,3.19.41,11.69,11.69,0,0,1,5.49,3.2,12.35,12.35,0,0,1,2,2.77,15.13,15.13,0,0,1,1.32,3.5,19.13,19.13,0,0,1,0,8.56,15.1,15.1,0,0,1-1.34,3.57,12.54,12.54,0,0,1-2,2.82,12,12,0,0,1-2.6,2.05,12.54,12.54,0,0,1-3,1.23,13.36,13.36,0,0,1-3.29.41,12.41,12.41,0,0,1-6.14-1.61,12,12,0,0,1-4.58-4.75,14.76,14.76,0,0,1-1.31-3.51,17.59,17.59,0,0,1-.47-4.24,18.88,18.88,0,0,1,.47-4.32,15.27,15.27,0,0,1,1.34-3.59,13.12,13.12,0,0,1,2.06-2.82,12.62,12.62,0,0,1,2.61-2,11.55,11.55,0,0,1,3-1.23A13.34,13.34,0,0,1,148.2,483.51Zm-.21,3.75a7.59,7.59,0,0,0-3.11.68,8.11,8.11,0,0,0-2.69,2,10.19,10.19,0,0,0-1.89,3.27,12.86,12.86,0,0,0-.72,4.47,13.78,13.78,0,0,0,.71,4.61,10,10,0,0,0,1.88,3.32,7.63,7.63,0,0,0,2.73,2,8.17,8.17,0,0,0,3.24.67,7.45,7.45,0,0,0,3.08-.68,7.92,7.92,0,0,0,2.69-2,10,10,0,0,0,1.88-3.27,13.19,13.19,0,0,0,.7-4.49,14.06,14.06,0,0,0-.69-4.61,9.79,9.79,0,0,0-1.89-3.32,7.8,7.8,0,0,0-2.71-2A8,8,0,0,0,148,487.26Z"/><path class="a" d="M191.71,511.66h-5l-11.4-19.4c-.26-.44-.49-.88-.7-1.31s-.41-.86-.59-1.29c0,.43.07.86.08,1.29s0,.87,0,1.31v19.4h-3.85V483.9h5l11.44,19.4c.26.44.49.87.69,1.28s.39.84.58,1.25c0-.41-.07-.83-.08-1.26s0-.86,0-1.27V483.9h3.84Z"/><path class="a" d="M81.48,459.66H77.41V431.9h4.07Z"/><path class="a" d="M114.22,459.66h-5l-11.4-19.4c-.25-.44-.49-.88-.69-1.31s-.41-.86-.59-1.29c0,.43.06.86.08,1.29s0,.87,0,1.31v19.4H92.79V431.9h5l11.44,19.4c.25.44.48.87.68,1.28s.4.84.58,1.25c0-.41-.06-.83-.07-1.26s0-.86,0-1.27V431.9h3.84Z"/><path class="a" d="M147,459.66h-5l-11.4-19.4c-.26-.44-.49-.88-.7-1.31s-.4-.86-.59-1.29c0,.43.07.86.08,1.29s0,.87,0,1.31v19.4h-3.85V431.9h5l11.44,19.4c.26.44.49.87.69,1.28s.39.84.58,1.25c0-.41-.06-.83-.08-1.26s0-.86,0-1.27V431.9H147Z"/><path class="a" d="M169.88,431.51a12.71,12.71,0,0,1,3.2.41,11.83,11.83,0,0,1,2.94,1.21,12.11,12.11,0,0,1,2.55,2,12.67,12.67,0,0,1,2,2.77,15.13,15.13,0,0,1,1.32,3.5,17.64,17.64,0,0,1,.48,4.24,18.31,18.31,0,0,1-.49,4.32,15.1,15.1,0,0,1-1.34,3.57,12.27,12.27,0,0,1-2,2.82,11.8,11.8,0,0,1-2.6,2.05,12.21,12.21,0,0,1-3,1.23,13.28,13.28,0,0,1-3.28.41,12.34,12.34,0,0,1-6.14-1.61,11.82,11.82,0,0,1-2.57-2,12.13,12.13,0,0,1-2-2.76,14.76,14.76,0,0,1-1.31-3.51,18.11,18.11,0,0,1-.47-4.24,18.32,18.32,0,0,1,.48-4.32,15.27,15.27,0,0,1,1.34-3.59,12.79,12.79,0,0,1,2.06-2.82,12.31,12.31,0,0,1,2.6-2,11.69,11.69,0,0,1,3-1.23A13.46,13.46,0,0,1,169.88,431.51Zm-.2,3.75a7.59,7.59,0,0,0-3.11.68,8,8,0,0,0-2.69,2,10,10,0,0,0-1.89,3.27,12.86,12.86,0,0,0-.72,4.47,13.78,13.78,0,0,0,.71,4.61,10,10,0,0,0,1.88,3.32,7.46,7.46,0,0,0,2.73,2,8.17,8.17,0,0,0,3.24.67,7.45,7.45,0,0,0,3.08-.68,7.88,7.88,0,0,0,2.68-2,9.82,9.82,0,0,0,1.88-3.27,13.18,13.18,0,0,0,.71-4.49,13.79,13.79,0,0,0-.7-4.61,9.61,9.61,0,0,0-1.88-3.32,7.74,7.74,0,0,0-2.72-2A8,8,0,0,0,169.68,435.26Z"/><path class="a" d="M210.8,431.9a136.32,136.32,0,0,1-3.36,13.88q-2.07,7-4.74,13.88h-5q-2.67-6.87-4.74-13.88a138.93,138.93,0,0,1-3.35-13.88h4.16c.36,1.88.77,3.8,1.23,5.78s1,4,1.53,6,1.15,4,1.78,5.95,1.28,3.88,1.95,5.73q1-2.77,1.93-5.73t1.77-5.95q.82-3,1.52-6c.47-2,.87-3.9,1.22-5.78Z"/><path class="a" d="M228.81,431.9q2.63,6.86,4.68,13.88t3.4,13.88h-4.17c-.18-1-.38-2-.58-3s-.44-2-.7-3H221.06c-.25,1-.48,2-.69,3s-.41,2-.59,3h-4.07q1.33-6.87,3.41-13.88t4.67-13.88ZM230.55,450q-.92-3.5-2-7t-2.32-6.75q-1.2,3.3-2.3,6.75t-2,7Z"/><path class="a" d="M260.21,435.59h-7.62v24.07h-4.08V435.59h-7.63V431.9h19.33Z"/><path class="a" d="M273.2,459.66h-4.07V431.9h4.07Z"/><path class="a" d="M296.13,431.51a12.71,12.71,0,0,1,3.2.41,11.69,11.69,0,0,1,5.49,3.2,12.35,12.35,0,0,1,2,2.77,15.13,15.13,0,0,1,1.32,3.5,19.13,19.13,0,0,1,0,8.56,15.1,15.1,0,0,1-1.34,3.57,12.27,12.27,0,0,1-2,2.82,12,12,0,0,1-2.59,2.05,12.54,12.54,0,0,1-3,1.23,13.36,13.36,0,0,1-3.29.41,12.41,12.41,0,0,1-6.14-1.61,12,12,0,0,1-4.58-4.75,14.34,14.34,0,0,1-1.31-3.51,17.59,17.59,0,0,1-.47-4.24,18.88,18.88,0,0,1,.47-4.32,15.27,15.27,0,0,1,1.34-3.59,12.79,12.79,0,0,1,2.06-2.82,12.62,12.62,0,0,1,2.61-2,11.55,11.55,0,0,1,3-1.23A13.32,13.32,0,0,1,296.13,431.51Zm-.2,3.75a7.59,7.59,0,0,0-3.11.68,8.11,8.11,0,0,0-2.69,2,10.19,10.19,0,0,0-1.89,3.27,12.86,12.86,0,0,0-.72,4.47,13.78,13.78,0,0,0,.71,4.61,10,10,0,0,0,1.88,3.32,7.54,7.54,0,0,0,2.73,2,8.17,8.17,0,0,0,3.24.67,7.45,7.45,0,0,0,3.08-.68,7.79,7.79,0,0,0,2.68-2,10,10,0,0,0,1.89-3.27,13.19,13.19,0,0,0,.7-4.49,14.06,14.06,0,0,0-.69-4.61,9.79,9.79,0,0,0-1.89-3.32,7.8,7.8,0,0,0-2.71-2A8.06,8.06,0,0,0,295.93,435.26Z"/><path class="a" d="M340.21,459.66h-5l-11.4-19.4c-.26-.44-.49-.88-.7-1.31s-.4-.86-.59-1.29q.06.64.09,1.29c0,.43,0,.87,0,1.31v19.4h-3.85V431.9h5l11.44,19.4c.26.44.49.87.69,1.28s.4.84.58,1.25c0-.41-.06-.83-.07-1.26s0-.86,0-1.27V431.9h3.83Z"/><path class="a" d="M90.75,387a9.07,9.07,0,0,0-2.83-1.74,8.52,8.52,0,0,0-3.1-.58,7.46,7.46,0,0,0-3,.65,7,7,0,0,0-2.56,2,9.76,9.76,0,0,0-1.77,3.28,14.43,14.43,0,0,0-.66,4.59,15.58,15.58,0,0,0,.57,4.37A10,10,0,0,0,79,402.86,7,7,0,0,0,81.54,405a7.53,7.53,0,0,0,3.41.74,9.81,9.81,0,0,0,2-.19,8.41,8.41,0,0,0,1.8-.58,8.63,8.63,0,0,0,1.65-1,12.37,12.37,0,0,0,1.52-1.33l1,3.53a13.13,13.13,0,0,1-3.86,2.42,12.12,12.12,0,0,1-4.68.86,11.73,11.73,0,0,1-4.84-1,10.3,10.3,0,0,1-3.71-2.83,12.94,12.94,0,0,1-2.39-4.44,19,19,0,0,1-.84-5.85,19.72,19.72,0,0,1,.44-4.35,15.55,15.55,0,0,1,1.23-3.6,12,12,0,0,1,1.89-2.82,10.84,10.84,0,0,1,2.43-2,10.55,10.55,0,0,1,2.85-1.21,12,12,0,0,1,3.13-.4,11.82,11.82,0,0,1,3.93.63,9.72,9.72,0,0,1,3.28,1.95Z"/><path class="a" d="M112.8,381a12.27,12.27,0,0,1,3.2.41,11.82,11.82,0,0,1,5.49,3.2,12.6,12.6,0,0,1,2,2.76,15.21,15.21,0,0,1,1.32,3.51,17.58,17.58,0,0,1,.48,4.24,18.31,18.31,0,0,1-.49,4.32,15.27,15.27,0,0,1-1.34,3.57,12.27,12.27,0,0,1-2,2.82,11.86,11.86,0,0,1-5.61,3.27,12.82,12.82,0,0,1-3.28.41,12.27,12.27,0,0,1-3.2-.41,11.89,11.89,0,0,1-7.52-5.94,14.77,14.77,0,0,1-1.32-3.51,18.11,18.11,0,0,1-.47-4.24,18.32,18.32,0,0,1,.48-4.32,15.1,15.1,0,0,1,1.34-3.59,12.34,12.34,0,0,1,2.06-2.82,12.11,12.11,0,0,1,2.61-2,11.41,11.41,0,0,1,3-1.23A12.85,12.85,0,0,1,112.8,381Zm-.2,3.75a7.59,7.59,0,0,0-3.11.68,8,8,0,0,0-2.69,2,10.19,10.19,0,0,0-1.89,3.27,13,13,0,0,0-.72,4.48,13.82,13.82,0,0,0,.71,4.61,10.15,10.15,0,0,0,1.88,3.32,7.57,7.57,0,0,0,2.73,2,8.16,8.16,0,0,0,3.24.66,7.44,7.44,0,0,0,3.08-.67,7.79,7.79,0,0,0,2.68-2,9.82,9.82,0,0,0,1.88-3.27,13,13,0,0,0,.71-4.5,13.83,13.83,0,0,0-.7-4.61,9.8,9.8,0,0,0-1.88-3.32,7.71,7.71,0,0,0-2.72-2A8,8,0,0,0,112.6,384.72Z"/><path class="a" d="M156.88,409.11h-5l-11.4-19.39c-.26-.44-.49-.88-.7-1.31s-.4-.86-.59-1.29q.06.64.09,1.29c0,.43,0,.87,0,1.31v19.39h-3.85V381.36h5l11.44,19.39c.26.45.49.87.69,1.29s.39.83.58,1.25c0-.42-.06-.84-.08-1.27s0-.85,0-1.27V381.36h3.83Z"/><path class="a" d="M189.62,409.11h-5l-11.4-19.39c-.26-.44-.49-.88-.7-1.31s-.4-.86-.58-1.29c0,.43.06.86.08,1.29s0,.87,0,1.31v19.39h-3.86V381.36h5l11.43,19.39c.26.45.49.87.69,1.29s.4.83.58,1.25c0-.42-.06-.84-.07-1.27s0-.85,0-1.27V381.36h3.84Z"/><path class="a" d="M215.37,385H205v8.24h9.51v3.64H205v8.69h10.37v3.59H200.93V381.36h14.44Z"/><path class="a" d="M242.49,387a9.11,9.11,0,0,0-2.84-1.74,8.51,8.51,0,0,0-3.09-.58,7.51,7.51,0,0,0-3.06.65,7.2,7.2,0,0,0-2.56,2,9.92,9.92,0,0,0-1.76,3.28,14.43,14.43,0,0,0-.66,4.59,15.58,15.58,0,0,0,.57,4.37,10.19,10.19,0,0,0,1.62,3.34,7.16,7.16,0,0,0,2.56,2.13,7.57,7.57,0,0,0,3.42.74,9.88,9.88,0,0,0,2-.19,8.41,8.41,0,0,0,1.8-.58,8.27,8.27,0,0,0,1.64-1,11.75,11.75,0,0,0,1.53-1.33l1,3.53a13.08,13.08,0,0,1-3.85,2.42,12.19,12.19,0,0,1-4.68.86,11.69,11.69,0,0,1-4.84-1,10.42,10.42,0,0,1-3.72-2.83,12.93,12.93,0,0,1-2.38-4.44,18.74,18.74,0,0,1-.85-5.85,20.34,20.34,0,0,1,.44-4.35,16,16,0,0,1,1.23-3.6,12.63,12.63,0,0,1,1.89-2.82,11.12,11.12,0,0,1,2.44-2,10.35,10.35,0,0,1,2.84-1.21,12,12,0,0,1,3.13-.4,11.92,11.92,0,0,1,3.94.63,9.82,9.82,0,0,1,3.28,1.95Z"/><path class="a" d="M270,385.05h-7.62v24.06h-4.07V385.05h-7.64v-3.69H270Z"/><path class="a" d="M283,409.11h-4.07V381.36H283Z"/><path class="a" d="M315.69,409.11h-5l-11.4-19.39c-.26-.44-.49-.88-.7-1.31s-.4-.86-.58-1.29c0,.43.06.86.08,1.29s0,.87,0,1.31v19.39h-3.86V381.36h5l11.43,19.39c.26.45.49.87.69,1.29s.4.83.58,1.25c0-.42-.06-.84-.07-1.27s0-.85,0-1.27V381.36h3.84Z"/><path class="a" d="M347.52,407.28a15.86,15.86,0,0,1-4.1,1.65,19.33,19.33,0,0,1-4.72.55,14.18,14.18,0,0,1-5.17-.91,11.31,11.31,0,0,1-4.07-2.71,12.51,12.51,0,0,1-2.67-4.4,17.57,17.57,0,0,1-1-6,19.44,19.44,0,0,1,.47-4.39,14.69,14.69,0,0,1,1.36-3.62,12.65,12.65,0,0,1,2.09-2.84,11.91,11.91,0,0,1,2.68-2,12.73,12.73,0,0,1,3.12-1.22A13.83,13.83,0,0,1,339,381a13.51,13.51,0,0,1,4.54.74,13,13,0,0,1,3.88,2.17l-1.12,3.44a13.69,13.69,0,0,0-1.65-1.12,11.92,11.92,0,0,0-1.78-.82,10.75,10.75,0,0,0-3.78-.66,10,10,0,0,0-2.31.27,8.08,8.08,0,0,0-2.14.84,8.22,8.22,0,0,0-1.86,1.44,8.66,8.66,0,0,0-1.45,2.05,11.74,11.74,0,0,0-1,2.66,14.59,14.59,0,0,0-.35,3.3,14.22,14.22,0,0,0,.67,4.56,9.46,9.46,0,0,0,1.87,3.3,7.7,7.7,0,0,0,2.82,2,9.1,9.1,0,0,0,3.53.67,12.53,12.53,0,0,0,2.43-.23,9.77,9.77,0,0,0,2.29-.8v-7.09h-6.28v-3.48h10.19Z"/><path class="a" d="M408.43,243.6q-8.42-10.78-25-10.79a31,31,0,0,0-15.51,3.88,27.29,27.29,0,0,0-10.8,11.14,35,35,0,0,0-3.91,16.85q0,14.1,7.55,23.05t22,8.95a28.61,28.61,0,0,0,12.52-2.75,25.83,25.83,0,0,0,9.61-7.82q-.27,18.33-4.64,27.42a14.93,14.93,0,0,1-8.26,7.84v10.75a27.09,27.09,0,0,0,10.18-4.28q7.23-5.07,10.94-16.7t3.71-31.09Q416.85,254.39,408.43,243.6Zm-9.74,36.8q-4.9,6.14-14.31,6.13t-14.25-5.92q-4.85-5.92-4.84-15.37,0-9.74,4.84-15.93t14.25-6.21q9.4,0,14.31,6.07t4.9,15.51Q403.59,274.27,398.69,280.4Z"/><path class="a" d="M369.73,318.32a21.58,21.58,0,0,1-3.77-7.95H355.89a29.69,29.69,0,0,0,6.21,14.3A21.87,21.87,0,0,0,374,331.9V321.78A29.18,29.18,0,0,1,369.73,318.32Z"/><polygon class="a" points="334.77 233.97 326.32 241.42 326.32 254.19 334.77 246.74 334.77 330.83 343.56 330.83 343.56 233.97 334.77 233.97"/><ellipse class="a" cx="311.4" cy="325.12" rx="7.32" ry="7.5"/><path class="b" d="M288.76,234.93v95.9h-8.13l-60-77.81v77.81h-9.87v-95.9h8.14L279,312.75V234.93Zm-96.95,21.74a47.25,47.25,0,0,0-17.54-18.31,50.66,50.66,0,0,0-50.13.07,47.09,47.09,0,0,0-17.6,18.31,57.14,57.14,0,0,0,0,52.28,47.34,47.34,0,0,0,33.39,24.16l-.09-9.74a36.88,36.88,0,0,1-10.63-4.3,38,38,0,0,1-14.14-14.93,46.89,46.89,0,0,1,0-42.65,38.52,38.52,0,0,1,68.2,0,47.38,47.38,0,0,1,0,42.65,37.61,37.61,0,0,1-14,14.93,36.39,36.39,0,0,1-9.3,4v9.79a46.17,46.17,0,0,0,14.3-5.52,47.12,47.12,0,0,0,17.54-18.31,56.87,56.87,0,0,0,0-52.42ZM32.28,326.86A46,46,0,0,1,15,308.77,56.75,56.75,0,0,1,15,257a45.92,45.92,0,0,1,17.31-18.08,47.74,47.74,0,0,1,24.74-6.53,47.94,47.94,0,0,1,19,3.69,39.29,39.29,0,0,1,14.75,10.78l-6.19,6.67q-10.8-11.78-27.25-11.78a38,38,0,0,0-33.89,20.15,46,46,0,0,0,0,42A38,38,0,0,0,57.35,324q16.59,0,27.25-11.92l6.19,6.67A39.86,39.86,0,0,1,76,329.62a47.65,47.65,0,0,1-19,3.76A47.42,47.42,0,0,1,32.28,326.86ZM352.62,116.93v37.81H330.45v18.77h22.17v39.32h20v-95.9Zm-39.21,37.81V116.93h-20v95.9h20V173.51h.08V154.74Zm-92.14,54.59A46.3,46.3,0,0,1,204,191.16a54.47,54.47,0,0,1-6.28-26.28A54.43,54.43,0,0,1,204,138.61a46.33,46.33,0,0,1,17.25-18.18,50,50,0,0,1,45.51-2,42.44,42.44,0,0,1,15.66,13l-13.18,13.53q-9-11.55-22.32-11.56a26.9,26.9,0,0,0-24.79,15.22,38.78,38.78,0,0,0,0,32.68,26.9,26.9,0,0,0,24.79,15.22q13.32,0,22.32-11.69l13.18,13.52a41.65,41.65,0,0,1-15.72,13.1,47.64,47.64,0,0,1-20.92,4.51A46.87,46.87,0,0,1,221.27,209.33ZM190,195H141.42v17.81H190Zm-6.28-22.19V155.57H141.42v17.26Zm3.11-38.09V116.93H141.42v17.81ZM78.08,135H50.46V116.93h75.21V135H98.05v77.81h-20Zm310-82.58V96.16H375.85v-44L341.57.26h13.19L382,43.72,410.13.26h12.2ZM330.64,8.68V.26H281.29V8.68Zm-5.3,42V41.63h-44v9.08Zm7,34.89H281.29V96.16h51.09ZM223.26,0h9.9V85.74l30.1-.11V95.9h-40ZM168,.26h9.9V86l30.1-.11V96.16H168ZM84.64,72.18H133.2l10.07,24H157L115.41.26h-12.8l6.26,14,19.75,47H89.14l-4.5,11M85,.26,48.45,96.16H36.67L0,.26H12.86L42.86,79,73.1.26Z"/></svg>