<svg xmlns="http://www.w3.org/2000/svg" viewBox="0 0 346.36 30"><defs><style>.a{fill:#f2f2f2;}</style></defs><title>vtc-logo</title><path d="M120.31,26.72V40H116.6V26.63L106.16,10.84h4l8.27,13.23L127,10.84h3.72Z" transform="translate(-2.2 -10.07)"/><rect x="85.62" y="0.77" width="15.02" height="2.56"/><rect x="85.62" y="13.36" width="13.41" height="2.76"/><rect x="85.62" y="26.74" width="15.55" height="3.21"/><path d="M70.15,10.76h3v26.1l9.16,0V40H70.15Z" transform="translate(-2.2 -10.07)"/><path d="M53.33,10.84h3V36.93l9.16,0V40H53.33Z" transform="translate(-2.2 -10.07)"/><polyline points="25.76 22.66 40.54 22.66 43.61 29.96 47.79 29.96 35.13 0.77 31.23 0.77 33.14 5.02 39.15 19.32 27.13 19.32 25.76 22.66"/><path d="M28.07,10.84,17,40H13.36L2.2,10.84H6.11l9.13,24,9.21-24Z" transform="translate(-2.2 -10.07)"/><polygon points="217.99 0.73 217.99 12.27 211.62 12.27 211.62 18 217.99 18 217.99 30 223.72 30 223.72 0.73 217.99 0.73"/><polygon points="206.73 12.27 206.73 0.73 201 0.73 201 30 206.73 30 206.73 18 206.76 18 206.76 12.27 206.73 12.27"/><path d="M182.49,38.09a13.38,13.38,0,0,1-5-5.22,15.59,15.59,0,0,1-1.8-7.54,15.65,15.65,0,0,1,1.8-7.54,13.28,13.28,0,0,1,5-5.21A14.38,14.38,0,0,1,195.55,12,12.12,12.12,0,0,1,200,15.71l-3.78,3.88a8,8,0,0,0-10.62-2.16,7.92,7.92,0,0,0-2.9,3.21,10.33,10.33,0,0,0-1,4.69,10.3,10.3,0,0,0,1,4.69,7.72,7.72,0,0,0,7.12,4.37,7.8,7.8,0,0,0,6.4-3.36L200,34.91a11.86,11.86,0,0,1-4.51,3.76,13.68,13.68,0,0,1-6,1.3A13.49,13.49,0,0,1,182.49,38.09Z" transform="translate(-2.2 -10.07)"/><rect x="157.38" y="24.68" width="13.93" height="5.11"/><rect x="157.38" y="12.78" width="12.12" height="4.95"/><rect x="157.38" y="0.73" width="13.02" height="5.11"/><path d="M141.4,16.32h-7.92V10.8h21.58v5.52h-7.93V40.07H141.4Z" transform="translate(-2.2 -10.07)"/><path d="M311.67,11V38.61h-2.34L292.05,16.19V38.61h-2.84V11h2.34L308.87,33.4V11Z" transform="translate(-2.2 -10.07)"/><path d="M283.75,17.25A13.65,13.65,0,0,0,278.7,12a14.6,14.6,0,0,0-14.44,0,13.48,13.48,0,0,0-5.07,5.28,15.42,15.42,0,0,0-1.82,7.53,15.41,15.41,0,0,0,1.82,7.52,13.6,13.6,0,0,0,9.61,7l0-2.8a11,11,0,0,1-3.06-1.24,10.88,10.88,0,0,1-4.07-4.3,12.73,12.73,0,0,1-1.48-6.14,12.74,12.74,0,0,1,1.48-6.15,11,11,0,0,1,4.07-4.3,11.51,11.51,0,0,1,11.54,0,10.92,10.92,0,0,1,4,4.3,13,13,0,0,1,1.46,6.15,13,13,0,0,1-1.46,6.14,10.85,10.85,0,0,1-4,4.3,10.74,10.74,0,0,1-2.68,1.15v2.82a13.5,13.5,0,0,0,4.12-1.59,13.65,13.65,0,0,0,5.05-5.28,15.42,15.42,0,0,0,1.84-7.54A15.43,15.43,0,0,0,283.75,17.25Z" transform="translate(-2.2 -10.07)"/><path d="M237.8,37.46a13.24,13.24,0,0,1-5-5.21A15.4,15.4,0,0,1,231,24.8a15.44,15.44,0,0,1,1.8-7.46,13.22,13.22,0,0,1,5-5.21A13.79,13.79,0,0,1,245,10.25a14,14,0,0,1,5.46,1.06,11.4,11.4,0,0,1,4.24,3.11l-1.78,1.92A10.19,10.19,0,0,0,245,13a10.93,10.93,0,0,0-9.76,5.8,12.53,12.53,0,0,0-1.46,6.05,12.52,12.52,0,0,0,1.46,6,10.93,10.93,0,0,0,9.76,5.8,10.05,10.05,0,0,0,7.85-3.43l1.78,1.92a11.46,11.46,0,0,1-4.26,3.13,14.41,14.41,0,0,1-12.59-.8Z" transform="translate(-2.2 -10.07)"/><path class="a" d="M346.09,13.3q-2.46-3.17-7.32-3.16a9.19,9.19,0,0,0-4.55,1.13,8.06,8.06,0,0,0-3.17,3.27,10.32,10.32,0,0,0-1.14,4.94,10.1,10.1,0,0,0,2.21,6.76,8,8,0,0,0,6.45,2.63,8.43,8.43,0,0,0,3.68-.81,7.63,7.63,0,0,0,2.81-2.29q-.07,5.37-1.36,8a4.34,4.34,0,0,1-2.42,2.29v3.16a8.11,8.11,0,0,0,3-1.26,9.07,9.07,0,0,0,3.2-4.9A30.7,30.7,0,0,0,348.56,24Q348.56,16.46,346.09,13.3Zm-2.85,10.79a5.84,5.84,0,0,1-8.38.06,6.91,6.91,0,0,1-1.42-4.5A7.43,7.43,0,0,1,334.86,15,5,5,0,0,1,339,13.15a5.1,5.1,0,0,1,4.2,1.78,7.06,7.06,0,0,1,1.43,4.55A7.19,7.19,0,0,1,343.24,24.09Z" transform="translate(-2.2 -10.07)"/><path class="a" d="M334.74,35.21a6.46,6.46,0,0,1-1.1-2.33h-2.95a8.61,8.61,0,0,0,1.82,4.19A6.31,6.31,0,0,0,336,39.19v-3A9.13,9.13,0,0,1,334.74,35.21Z" transform="translate(-2.2 -10.07)"/><polygon class="a" points="322.3 0.41 319.82 2.59 319.82 6.33 322.3 4.15 322.3 28.81 324.87 28.81 324.87 0.41 322.3 0.41"/><ellipse class="a" cx="315.44" cy="26.93" rx="2.21" ry="2.4"/></svg>