<svg xmlns="http://www.w3.org/2000/svg" viewBox="0 0 144.1 38"><title>Asset 2</title><g id="Layer_2" data-name="Layer 2"><g id="Layer_1-2" data-name="Layer 1"><path d="M82.31,0a18.53,18.53,0,0,1,2.8.85,44.06,44.06,0,0,1,6.18,3.31C93,5.37,92.86,5.74,91.12,7c-.33.23-.68.44-.87.15-2.49-1.23-4.86-3-7.5-3.61-6.12-1.46-12.27,1.65-15.34,7.3-3.95,7.24-2.22,17.85,5.59,22.3,5,2.87,13.68,2.81,17.66-2.91a3.17,3.17,0,0,1,.52-.4l2.6,1.8A33.61,33.61,0,0,1,91,34.43C83.71,40.24,72.11,38.78,66,31.35,58.2,22,60.86,4.16,76.22.65,77.07.46,77.91.22,78.75,0Z" style="fill:#fff"/><path d="M49.8,21.87c0,4.44,0,8.88,0,13.31,0,1.41-.42,1.84-1.83,1.83-4.31,0-4.31,0-4.31-4.29,0-8.11,0-16.22,0-24.32,0-1.56-.4-2.08-2-2-2.54.13-5.09,0-7.64.05-1,0-1.49-.34-1.47-1.43.07-4.84-.51-3.95,3.71-4C44,1,51.62,1.05,59.25,1c1.46,0,2,.42,1.92,1.91C61,7,61.65,6.38,57.7,6.42a56.42,56.42,0,0,1-5.67,0c-1.88-.15-2.3.61-2.26,2.34C49.87,13.11,49.8,17.49,49.8,21.87Z" style="fill:#fff"/><path d="M0,1.37C2.85.56,3.34.78,4.24,3.19q5,13.35,10,26.7c.2.53.48,1,.93,2,.45-1,.76-1.6,1-2.22L26.31,3.53c1-2.7,1-2.7,4.38-2.33-.26.74-.48,1.44-.75,2.12-4.16,10.68-8.35,21.34-12.47,32A2.26,2.26,0,0,1,15,37.05c-1.39,0-1.82-.66-2.24-1.75Q6.65,19.06.44,2.84C.26,2.36.14,1.86,0,1.37Z" style="fill:#fff"/><path d="M144.1,20.25c-.29,1.66-.56,3.33-.87,5-.67,3.59-1.68,7.05-4.53,9.58A26.69,26.69,0,0,1,135.37,37c-.51-1.75-.49-2.82.82-3.9,3.12-2.58,3.65-6.34,4.15-10,.15-1.15.18-2.31.29-3.89a14.81,14.81,0,0,0-1.17,1c-4.49,5.1-13.09,4.59-16.72-1.09-4.1-6.41-1.36-16.42,6.84-17.94,6-1.12,11,1,13,7.18a48,48,0,0,1,1,4.82c.11.5.32,1,.48,1.48Zm-19.7-8.16c0,.42,0,.83,0,1.24a7.36,7.36,0,0,0,6.73,7.4c4.57.48,7.91-1.73,8.71-5.91a14,14,0,0,0,.12-3.71c-.31-3.88-2.77-6.81-6.06-7.36C128.08,2.79,124.4,6,124.4,12.09Z" style="fill:#fff"/><path d="M111.83,5.63l-2.44,1.9a4.75,4.75,0,0,1,4.19-6.33c1.4-.08,2,.28,2,1.84-.07,7.1,0,14.2,0,21.3,0,3.72,0,7.45,0,11.18,0,1.23-.41,1.65-1.65,1.65s-1.64-.44-1.63-1.66c0-9.17,0-18.34,0-27.51V5.89Z" style="fill:#fff"/><path d="M127.83,36.56A8.05,8.05,0,0,1,121.72,30c2.23-.74,2.75-.55,4,1.36a8,8,0,0,0,1.07,1.38C128.16,34.18,128.17,34.17,127.83,36.56Z" style="fill:#fff"/><path d="M102.24,37.19a2.45,2.45,0,0,1-2.65-2.29,2.57,2.57,0,1,1,5.14-.14A2.46,2.46,0,0,1,102.24,37.19Z" style="fill:#fff"/></g></g></svg>