<svg xmlns="http://www.w3.org/2000/svg" viewBox="0 0 114.36 29.93"><defs><style>.a{fill:#f2f2f2;}</style></defs><title>vtc-logo</title><path d="M28.07,10.84,17,40H13.36L2.2,10.84H6.11l9.13,24,9.21-24Z" transform="translate(-2.2 -10.14)"/><path d="M39.4,16.32H31.48V10.8H53.06v5.52H45.13V40.07H39.4Z" transform="translate(-2.2 -10.14)"/><path d="M61.8,37.46a13.24,13.24,0,0,1-5-5.21A15.4,15.4,0,0,1,55,24.8a15.44,15.44,0,0,1,1.8-7.46,13.22,13.22,0,0,1,5-5.21A13.79,13.79,0,0,1,69,10.25a14,14,0,0,1,5.46,1.06,11.4,11.4,0,0,1,4.24,3.11l-1.78,1.92A10.19,10.19,0,0,0,69,13a10.93,10.93,0,0,0-9.76,5.8A12.53,12.53,0,0,0,57.8,24.8a12.52,12.52,0,0,0,1.46,6A10.93,10.93,0,0,0,69,36.64a10.05,10.05,0,0,0,7.85-3.43l1.78,1.92a11.46,11.46,0,0,1-4.26,3.13,14.41,14.41,0,0,1-12.59-.8Z" transform="translate(-2.2 -10.14)"/><path class="a" d="M114.09,13.3q-2.46-3.17-7.32-3.16a9.19,9.19,0,0,0-4.55,1.13,8.06,8.06,0,0,0-3.17,3.27,10.32,10.32,0,0,0-1.14,4.94,10.1,10.1,0,0,0,2.21,6.76,8,8,0,0,0,6.45,2.63,8.43,8.43,0,0,0,3.68-.81,7.63,7.63,0,0,0,2.81-2.29q-.07,5.37-1.36,8a4.34,4.34,0,0,1-2.42,2.29v3.16a8.11,8.11,0,0,0,3-1.26,9.07,9.07,0,0,0,3.2-4.9A30.7,30.7,0,0,0,116.56,24Q116.56,16.46,114.09,13.3Zm-2.85,10.79a5.84,5.84,0,0,1-8.38.06,6.91,6.91,0,0,1-1.42-4.5A7.43,7.43,0,0,1,102.86,15,5,5,0,0,1,107,13.15a5.1,5.1,0,0,1,4.2,1.78,7.06,7.06,0,0,1,1.43,4.55A7.19,7.19,0,0,1,111.24,24.09Z" transform="translate(-2.2 -10.14)"/><path class="a" d="M102.74,35.21a6.46,6.46,0,0,1-1.1-2.33h-3a8.61,8.61,0,0,0,1.82,4.19A6.31,6.31,0,0,0,104,39.19v-3A9.13,9.13,0,0,1,102.74,35.21Z" transform="translate(-2.2 -10.14)"/><polygon class="a" points="90.3 0.34 87.82 2.53 87.82 6.27 90.3 4.08 90.3 28.74 92.87 28.74 92.87 0.34 90.3 0.34"/><ellipse class="a" cx="83.44" cy="26.86" rx="2.21" ry="2.4"/></svg>