<svg version="1" xmlns="http://www.w3.org/2000/svg" width="360" height="360" viewBox="0 0 270.000000 270.000000"><path d="M174 34.5c0 1.1-1.2 1.5-4.5 1.5s-4.5.4-4.5 1.5c0 1-1 1.5-3 1.5s-3 .5-3 1.5c0 .8-.6 1.5-1.4 1.5-.8 0-1.6.7-2 1.5-.3.8-1.7 1.5-3.1 1.5-1.6 0-2.5.6-2.5 1.5 0 .8-.7 1.5-1.5 1.5s-1.5.7-1.5 1.5-.7 1.5-1.5 1.5-1.5.6-1.5 1.4c0 .8-.7 1.6-1.5 2-.8.3-1.5 1.5-1.5 2.6s-.7 2.3-1.5 2.6c-.8.4-1.5 1.2-1.5 2s-.7 1.4-1.5 1.4c-1 0-1.5 1-1.5 3.4 0 1.9-.6 3.6-1.4 3.9-.7.3-1.6 2.6-1.9 5.3-.3 2.7-1 5-1.6 5.2-.7.2-1.1 6.2-1.1 18.3 0 15.2.2 17.9 1.5 17.9 1.1 0 1.5 1.2 1.5 4.5s.4 4.5 1.5 4.5c1 0 1.5 1 1.5 2.9 0 1.6.6 3.1 1.5 3.5.8.3 1.5 1.7 1.5 3.1 0 1.6.6 2.5 1.5 2.5.8 0 1.5.7 1.5 1.5s.7 1.5 1.5 1.5 1.5.7 1.5 1.5.7 1.5 1.5 1.5 1.5.4 1.5 1c0 1.3 3.7 5 5 5 .6 0 1 .7 1 1.5 0 .9.9 1.5 2.4 1.5 1.3 0 2.6.7 3 1.5.3.8 1.7 1.5 3 1.5 1.4 0 2.9.6 3.3 1.3.4.8 2.6 1.7 4.8 2 2.2.4 4.1 1.1 4.3 1.7.2.6 6 1 15.2 1 12.2 0 14.9-.3 15.4-1.5.3-1 1.9-1.5 4.5-1.5 2.5 0 4.1-.5 4.5-1.5.3-.8 1.7-1.5 3.1-1.5 1.4 0 2.8-.7 3.1-1.5.4-.8 1.7-1.5 3-1.5 1.5 0 2.4-.6 2.4-1.5 0-.8.7-1.5 1.5-1.5s1.5-.7 1.5-1.5.7-1.5 1.5-1.5 1.5-.7 1.5-1.5.7-1.5 1.5-1.5 1.5-.7 1.5-1.5.6-1.5 1.4-1.5c1.2 0 1.3 1.2.9 5.7-.3 3.2-1 5.9-1.5 6.1-.4.2-.8 4.3-.8 9-.1 6.1-.5 9.3-1.5 10.6-.8 1.1-1.5 3.9-1.5 6.3 0 3.2-.4 4.3-1.5 4.3s-1.5 1.2-1.5 4.5-.4 4.5-1.5 4.5c-1 0-1.5 1-1.5 3s-.5 3-1.5 3-1.5 1-1.5 3-.5 3-1.5 3c-.8 0-1.5.7-1.5 1.5s-.7 1.5-1.5 1.5-1.5.7-1.5 1.5-.7 1.5-1.5 1.5-1.5.7-1.5 1.5c0 1-1 1.5-3 1.5h-3v10.3c0 5.7.2 10.6.4 10.8 1.1 1.1 8.6-.4 8.6-1.7 0-.9 1.1-1.4 3-1.4 2 0 3-.5 3-1.5 0-.8.8-1.5 1.9-1.5 1 0 2.4-.7 3.1-1.5.7-.8 1.9-1.5 2.6-1.5.8 0 1.4-.7 1.4-1.5s.7-1.5 1.5-1.5 1.5-.6 1.5-1.4c0-.8.7-1.6 1.5-2 .8-.3 1.5-1.5 1.5-2.6s.7-2.3 1.5-2.6c.8-.4 1.5-1.2 1.5-2s.7-1.4 1.5-1.4c1 0 1.5-1 1.5-3s.5-3 1.5-3 1.5-1 1.5-3 .5-3 1.5-3c1.1 0 1.5-1.2 1.5-4.5s.4-4.5 1.5-4.5 1.5-1.1 1.5-4.3c0-2.4.6-4.9 1.2-5.5.7-.7 1.5-4.7 1.9-8.9.3-4.4 1.1-7.9 1.8-8.1 1.6-.5 1.6-68.9 0-69.4-.6-.2-1.4-2.8-1.7-5.8-.2-3.1-1.1-5.8-1.8-6.3-.8-.4-1.4-2.4-1.4-4.3 0-2-.7-4.2-1.5-5-.8-.9-1.5-2.9-1.5-4.5 0-1.7-.6-3.2-1.5-3.5-.8-.4-1.5-1.2-1.5-2s-.7-1.4-1.5-1.4c-1 0-1.5-1-1.5-3s-.5-3-1.5-3c-.8 0-1.5-.7-1.5-1.5s-.7-1.5-1.5-1.5-1.5-.7-1.5-1.5-.7-1.5-1.5-1.5-1.5-.7-1.5-1.5-.7-1.5-1.5-1.5-1.5-.7-1.5-1.5c0-.9-.9-1.5-2.5-1.5-1.4 0-2.8-.7-3.1-1.5-.4-.9-1.9-1.5-3.5-1.5-1.9 0-2.9-.5-2.9-1.5s-1-1.5-2.7-1.5c-1.6 0-3.7-.7-4.7-1.5-2.9-2.2-37.6-2.2-37.6 0zm30.8 19.1c3.5.4 5.2 1.1 5.2 2 0 .9 1.1 1.4 3 1.4 2 0 3 .5 3 1.5 0 .8.7 1.5 1.5 1.5s1.5.7 1.5 1.5.7 1.5 1.5 1.5 1.5.7 1.5 1.5.7 1.5 1.5 1.5c1 0 1.5 1 1.5 3s.5 3 1.5 3 1.5 1 1.5 3 .5 3 1.5 3c1.1 0 1.5 1.1 1.5 3.9 0 2.1.7 5.6 1.6 7.7 1.9 4.6 1.7 20.5-.4 21.2-.7.2-1.2 2.1-1.2 4.7 0 2.9-.5 4.5-1.5 4.9-.8.3-1.5 1.7-1.5 3.1 0 1.6-.6 2.5-1.5 2.5-.8 0-1.5.7-1.5 1.5s-.7 1.5-1.5 1.5-1.5.4-1.5 1c0 .5-.9 1.9-2 3s-2.4 2-3 2c-.5 0-1 .7-1 1.5 0 1-1 1.5-2.8 1.5-1.6 0-3.7.7-4.8 1.5-2.8 2.1-30.9 2.2-31.8 0-.3-.8-1.7-1.5-3.1-1.5-1.6 0-2.5-.6-2.5-1.5 0-1-1-1.5-3-1.5s-3-.5-3-1.5c0-.8-.7-1.5-1.5-1.5s-1.5-.6-1.5-1.4c0-.8-.7-1.6-1.5-2-.8-.3-1.5-1.7-1.5-3.1 0-1.6-.6-2.5-1.5-2.5-1 0-1.5-1-1.5-3s-.5-3-1.5-3c-1.2 0-1.5-1.3-1.5-6 0-3.3-.4-6-1-6s-1-2.8-1-6.4c0-3.6.5-6.8 1-7.1.6-.3 1-3.5 1-7.1 0-5 .3-6.4 1.5-6.4 1 0 1.5-1 1.5-2.9 0-1.6.6-3.1 1.5-3.5.8-.3 1.5-1.7 1.5-3.1 0-1.6.6-2.5 1.5-2.5.8 0 1.5-.7 1.5-1.5s.7-1.5 1.5-1.5 1.5-.7 1.5-1.5.7-1.5 1.5-1.5 1.5-.7 1.5-1.5c0-1 1-1.5 3-1.5s3-.5 3-1.5c0-1.2 1.3-1.5 6-1.5 3.6 0 6-.4 6-1.1 0-1.1 6.4-.8 18.8.7zM90 37.5c0 1-1 1.5-3 1.5s-3 .5-3 1.5c0 .8-.7 1.5-1.5 1.5s-1.5.7-1.5 1.5-.7 1.5-1.5 1.5-1.5.7-1.5 1.5-.7 1.5-1.5 1.5-1.5.7-1.5 1.5-.7 1.5-1.5 1.5c-1.3 0-1.5 2.2-1.5 13.5S72.2 78 73.5 78c.8 0 1.5-.7 1.5-1.5s.7-1.5 1.5-1.5 1.5-.7 1.5-1.5.7-1.5 1.5-1.5 1.5-.7 1.5-1.5.7-1.5 1.5-1.5 1.5-.7 1.5-1.5c0-.9.9-1.5 2.5-1.5H89l.2 83.7.3 83.8 10.8.3 10.7.3V36h-10.5c-8.7 0-10.5.3-10.5 1.5zM132 196.5c0 3.3.4 4.5 1.5 4.5 1 0 1.5 1.1 1.5 3.5 0 1.9.4 3.5 1 3.5.5 0 1.2 1.1 1.6 2.5.3 1.4 1.2 2.5 2 2.5s1.4.9 1.4 2 .7 2.3 1.5 2.6c.8.4 1.5 1.5 1.5 2.5s.7 1.9 1.5 1.9 1.5.5 1.5 1.1c0 .5 1.4 1.5 3 2 1.7.6 3 1.5 3 2s.7.9 1.5.9 1.5.7 1.5 1.5c0 1 1 1.5 3 1.5s3 .5 3 1.6c0 1.2 1 1.4 4.8 1.2l4.7-.3.3-6c.5-8.3-.6-14.5-2.4-14.5-.8 0-1.4-.7-1.4-1.5s-.7-1.5-1.5-1.5-1.5-.7-1.5-1.5-.7-1.5-1.5-1.5-1.5-.7-1.5-1.5-.7-1.5-1.5-1.5-1.5-.6-1.5-1.4c0-.8-.7-1.6-1.5-2-1-.3-1.5-1.9-1.5-4.6v-4h-24v4.5zM36 205.4c0 .9-1.2 1.6-2.7 1.8-1.9.2-2.9 1-3.1 2.3-.2 1.1-1 2.5-1.9 3.2-2.2 1.7-2.1 14.3.1 15.5.9.5 1.6 2 1.6 3.3 0 2.1.5 2.5 3 2.5 2 0 3 .5 3 1.5 0 1.2 1.3 1.5 6 1.5 4.5 0 6-.3 6-1.4 0-.9 1.2-1.6 2.8-1.8 1.9-.2 2.8-.9 3-2.6.2-1.3 1-2.6 1.8-2.9 2-.7 2-14.9 0-15.6-.8-.3-1.6-1.6-1.8-2.9-.2-1.7-1.1-2.4-3-2.6-1.6-.2-2.8-.9-2.8-1.8 0-1.1-1.5-1.4-6-1.4s-6 .3-6 1.4z"/></svg>